<svg xmlns="http://www.w3.org/2000/svg" width="16" height="16" fill="none" viewBox="0 0 16 16"><path d="M12.6487 4.77308C12.5703 4.83608 11.1867 5.64396 11.1867 7.44034C11.1867 9.51815 12.9473 10.2532 13 10.2714C12.9919 10.3162 12.7203 11.2781 12.0717 12.2582C11.4934 13.1207 10.8894 13.9818 9.97064 13.9818C9.05184 13.9818 8.81538 13.4287 7.7547 13.4287C6.72104 13.4287 6.35352 14 5.51308 14C4.67264 14 4.08623 13.2019 3.41199 12.2218C2.631 11.0709 2 9.28293 2 7.58596C2 4.86409 3.7079 3.42054 5.38877 3.42054C6.28191 3.42054 7.02641 4.0282 7.58715 4.0282C8.12087 4.0282 8.9532 3.38414 9.96929 3.38414C10.3544 3.38414 11.738 3.42054 12.6487 4.77308V4.77308ZM9.48692 2.23182C9.90714 1.71517 10.2044 0.9983 10.2044 0.281428C10.2044 0.182018 10.1963 0.0812081 10.1787 0C9.49503 0.0266027 8.68161 0.471847 8.19113 1.06131C7.80604 1.51495 7.44663 2.23182 7.44663 2.9585C7.44663 3.06771 7.46419 3.17692 7.4723 3.21192C7.51554 3.22032 7.5858 3.23012 7.65606 3.23012C8.2695 3.23012 9.04103 2.80448 9.48692 2.23182Z" fill="currentColor"/></svg>