<svg width="16" height="16" viewBox="0 0 16 16" xmlns="http://www.w3.org/2000/svg" class="sc-bdnylx gDXMLZ"><path fill-rule="evenodd" clip-rule="evenodd" d="M8.00004 1.33337C4.31671 1.33337 1.33337 4.39217 1.33337 8.16867C1.33337 11.1933 3.24171 13.748 5.89171 14.6537C6.22504 14.7135 6.35004 14.5084 6.35004 14.329C6.35004 14.1666 6.34171 13.6284 6.34171 13.0559C4.66671 13.372 4.23337 12.6372 4.10004 12.2528C4.02504 12.0562 3.70004 11.4496 3.41671 11.2873C3.18337 11.1591 2.85004 10.843 3.40837 10.8344C3.93337 10.8259 4.30837 11.33 4.43337 11.535C5.03337 12.5689 5.99171 12.2784 6.37504 12.099C6.43337 11.6547 6.60837 11.3556 6.80004 11.1847C5.31671 11.0139 3.76671 10.4243 3.76671 7.80981C3.76671 7.06648 4.02504 6.4513 4.45004 5.97283C4.38337 5.80195 4.15004 5.10133 4.51671 4.16148C4.51671 4.16148 5.07504 3.98205 6.35004 4.86209C6.88337 4.7083 7.45004 4.6314 8.01671 4.6314C8.58337 4.6314 9.15004 4.7083 9.68337 4.86209C10.9584 3.97351 11.5167 4.16148 11.5167 4.16148C11.8834 5.10133 11.65 5.80195 11.5834 5.97283C12.0084 6.4513 12.2667 7.05793 12.2667 7.80981C12.2667 10.4329 10.7084 11.0139 9.22504 11.1847C9.46671 11.3983 9.67504 11.8085 9.67504 12.4493C9.67504 13.3635 9.66671 14.0983 9.66671 14.329C9.66671 14.5084 9.79171 14.722 10.125 14.6537C11.4485 14.1956 12.5985 13.3235 13.4132 12.1602C14.228 10.9968 14.6664 9.60083 14.6667 8.16867C14.6667 4.39217 11.6834 1.33337 8.00004 1.33337Z" fill="currentColor"/></svg>